<svg width="48" height="48" viewBox="0 0 48 48" fill="none" xmlns="http://www.w3.org/2000/svg">
<g clip-path="url(#clip0_37_1243)">
<rect width="48" height="48" fill="white"/>
<path d="M13.4074 29.9469C13.6797 24.0094 16.3888 20.4485 17.4433 19.2769C12.2816 22.5354 8.85371 28.2354 7.37646 32.4312V34.2045C7.37646 39.0622 11.691 42.9999 17.0174 42.9999C18.2038 43.0015 19.3818 42.8007 20.5007 42.4062C21.0596 42.2162 21.609 42.0135 22.1458 41.8077C23.5914 40.3843 24.7583 38.7835 25.6972 37.0704C17.9753 40.9194 13.0717 37.1844 13.4058 29.9454L13.4074 29.9469Z" fill="#1E37FC"/>
<path d="M40.7359 21.2815C38.8169 19.8549 34.23 17.4751 29.024 16.8481C29.4911 22.8521 29.1712 30.7276 25.699 37.0721C24.7533 38.8168 23.5562 40.413 22.146 41.8094C28.1057 39.5167 32.8272 36.3358 35.7563 33.546C40.2213 29.2979 41.0652 25.3475 41.0779 23.001C41.0818 22.4116 40.9654 21.8275 40.7359 21.2846V21.2815Z" fill="#37E1BE"/>
<path d="M27.6464 7.95608C25.5121 6.10833 22.8093 5 19.8675 5C16.9257 5 14.3148 6.07192 12.1963 7.86108C9.41908 10.2092 7.57608 13.7986 7.375 17.8646V32.4328C8.85067 28.237 12.2786 22.537 17.4403 19.2801C18.2319 18.7766 19.0632 18.338 19.9245 17.9675C22.9059 16.6992 26.0647 16.4918 29.0223 16.8497C28.6708 12.3688 27.8855 8.92983 27.6448 7.95608H27.6464Z" fill="#A569FF"/>
<path d="M32.3998 12.8549C31.8276 12.2797 31.2576 11.7023 30.6898 11.1227C30.37 10.7855 30.0596 10.4593 29.762 10.1379L27.6514 7.95605C27.8905 8.9298 28.6774 12.3672 29.0273 16.8496C34.2333 17.4751 38.8202 19.8548 40.7376 21.283C38.6698 19.2642 35.2355 15.7619 32.3998 12.8549Z" fill="#1E37FC"/>
</g>
<defs>
<clipPath id="clip0_37_1243">
<rect width="48" height="48" rx="8" fill="white"/>
</clipPath>
</defs>
</svg>
