<svg width="48" height="48" viewBox="0 0 48 48" fill="none" xmlns="http://www.w3.org/2000/svg">
<g id="logo_qwen">
<rect width="48" height="48" rx="8" fill="white"/>
<path id="_&#229;&#189;&#162;&#231;&#138;&#182;" fill-rule="evenodd" clip-rule="evenodd" d="M24.0943 5C24.4643 5 24.8234 5.19924 25.0193 5.53131L27.1742 9.29479H36.7295C37.0995 9.29479 37.4587 9.49403 37.6545 9.8261L40.3644 14.5415C40.5603 14.8736 40.5603 15.2942 40.3644 15.6263L40.31 15.7148C40.2665 15.7812 40.2121 15.8477 40.1468 15.903L38.0028 19.6443L42.7478 27.9461L42.8675 28.1232C43.009 28.4553 43.0416 28.8759 42.9437 29.1748L40.4515 33.5138C40.2556 33.8459 39.9073 34.0452 39.5264 34.0452L35.2059 34.0673L30.4391 42.4465C30.2432 42.7786 29.8949 42.9779 29.514 42.9779L24.116 43H24.0399C23.6916 42.9779 23.3542 42.7786 23.1801 42.4687L20.862 38.4285H11.4264C11.3503 38.4506 11.285 38.4506 11.2088 38.4506C10.8387 38.4506 10.4796 38.2514 10.2837 37.9193L7.7915 33.5803C7.5956 33.2592 7.5956 32.8497 7.7915 32.5066L9.93546 28.7209L5.14692 20.3528C4.95103 20.0318 4.95103 19.6222 5.14692 19.2791L7.81326 14.5415C7.98739 14.2094 8.34653 14.0102 8.73832 14.0102C8.83627 13.9881 8.91245 14.0102 8.98863 14.0323H13.4071L18.1304 5.73056C18.1521 5.66414 18.163 5.6088 18.1957 5.56452L18.2174 5.53131C18.4133 5.19924 18.7616 5 19.1425 5H24.1052H24.0943ZM19.0663 6.15118L13.9404 15.1503H8.69479L18.9031 33.0047H13.701L11.187 37.4212H21.4279L24.0399 42.0038L34.2482 24.1052L36.8601 28.6656L41.8989 28.6435L36.7621 19.6443L39.3523 15.106L19.001 15.1282L21.613 10.5677L19.0772 6.15118H19.0663ZM30.1126 20.5631L24.0072 31.2447L17.9018 20.5631H30.1126Z" fill="url(#paint0_linear_37_1165)"/>
</g>
<defs>
<linearGradient id="paint0_linear_37_1165" x1="2920.37" y1="1586.07" x2="700.633" y2="2494.25" gradientUnits="userSpaceOnUse">
<stop stop-color="#797BEB"/>
<stop offset="1" stop-color="#373080"/>
</linearGradient>
</defs>
</svg>
