<svg width="48" height="48" viewBox="0 0 48 48" fill="none" xmlns="http://www.w3.org/2000/svg">
<g id="logo_minimax">
<rect width="48" height="48" rx="8" fill="white"/>
<g id="minimax-color">
<path id="Vector" d="M30.417 9C32.151 9 33.5565 10.3905 33.5565 12.105V30.8565C33.5685 31.1438 33.6916 31.4152 33.8998 31.6136C34.1079 31.812 34.385 31.9218 34.6725 31.92C34.9598 31.9214 35.2364 31.8114 35.4443 31.6131C35.6521 31.4147 35.775 31.1435 35.787 30.8565V19.6485C35.7892 19.2427 35.8712 18.8413 36.0285 18.4673C36.1858 18.0932 36.4152 17.7538 36.7037 17.4684C36.9922 17.183 37.334 16.9572 37.7097 16.8039C38.0855 16.6506 38.4877 16.5728 38.8935 16.575C39.2994 16.5728 39.7018 16.6507 40.0776 16.804C40.4534 16.9574 40.7953 17.1833 41.0838 17.4689C41.3723 17.7545 41.6017 18.0941 41.7589 18.4683C41.9161 18.8425 41.998 19.2441 42 19.65V29.4915C41.9984 29.7494 41.8945 29.9962 41.7112 30.1776C41.5278 30.359 41.2799 30.4602 41.022 30.459C40.8942 30.4598 40.7674 30.4354 40.649 30.3872C40.5306 30.339 40.4228 30.268 40.3319 30.1781C40.2409 30.0883 40.1685 29.9814 40.1189 29.8636C40.0692 29.7458 40.0433 29.6193 40.0425 29.4915V19.65C40.0417 19.4999 40.0114 19.3514 39.9532 19.213C39.895 19.0747 39.8102 18.9491 39.7035 18.8435C39.5968 18.7379 39.4703 18.6544 39.3314 18.5977C39.1924 18.541 39.0436 18.5122 38.8935 18.513C38.7434 18.5122 38.5946 18.541 38.4556 18.5977C38.3167 18.6544 38.1902 18.7379 38.0835 18.8435C37.9768 18.9491 37.892 19.0747 37.8338 19.213C37.7756 19.3514 37.7453 19.4999 37.7445 19.65V30.858C37.7423 31.2593 37.6612 31.6562 37.5056 32.026C37.3501 32.3959 37.1232 32.7315 36.8379 33.0137C36.5526 33.2959 36.2146 33.5192 35.8431 33.6707C35.4715 33.8223 35.0738 33.8992 34.6725 33.897C34.2712 33.8992 33.8735 33.8223 33.5019 33.6707C33.1304 33.5192 32.7924 33.2959 32.5071 33.0137C32.2218 32.7315 31.9949 32.3959 31.8394 32.026C31.6838 31.6562 31.6027 31.2593 31.6005 30.858V12.108C31.5881 11.8033 31.4579 11.5153 31.2375 11.3047C31.017 11.094 30.7234 10.9771 30.4185 10.9785C30.1136 10.9767 29.8198 11.0932 29.5991 11.3036C29.3783 11.514 29.2478 11.8018 29.235 12.1065L29.2335 35.9625C29.2287 36.7726 28.9025 37.5477 28.3264 38.1173C27.7503 38.6869 26.9716 39.0044 26.1615 39C25.7602 39.0022 25.3625 38.9253 24.9909 38.7737C24.6194 38.6222 24.2814 38.3989 23.9961 38.1167C23.7108 37.8345 23.4839 37.4989 23.3284 37.129C23.1728 36.7592 23.0917 36.3623 23.0895 35.961V33.06C23.0895 32.526 23.5275 32.0925 24.0675 32.0925C24.6075 32.0925 25.0455 32.526 25.0455 33.06V35.961C25.0455 36.3555 25.2585 36.72 25.6035 36.918C25.9485 37.1145 26.3745 37.1145 26.7195 36.918C26.8888 36.822 27.0296 36.6829 27.1276 36.5148C27.2256 36.3467 27.2774 36.1556 27.2775 35.961V12.105C27.2775 10.3905 28.683 9 30.417 9ZM21.906 9C23.64 9 25.0455 10.3905 25.0455 12.105V29.3895C25.0449 29.5173 25.0191 29.6437 24.9697 29.7615C24.9202 29.8793 24.8479 29.9862 24.7571 30.076C24.6663 30.1659 24.5586 30.237 24.4403 30.2852C24.3219 30.3334 24.1953 30.3578 24.0675 30.357C23.9397 30.3578 23.8131 30.3334 23.6947 30.2852C23.5764 30.237 23.4687 30.1659 23.3779 30.076C23.2871 29.9862 23.2148 29.8793 23.1654 29.7615C23.1159 29.6437 23.0901 29.5173 23.0895 29.3895V12.105C23.0875 11.793 22.9618 11.4945 22.7399 11.2751C22.5179 11.0557 22.218 10.9334 21.906 10.935C21.594 10.9334 21.2941 11.0557 21.0721 11.2751C20.8502 11.4945 20.7245 11.793 20.7225 12.105V33.1245C20.7177 33.9435 20.388 34.7271 19.8058 35.3031C19.2236 35.8792 18.4365 36.2005 17.6175 36.1965C16.7982 36.2009 16.0108 35.8797 15.4282 35.3037C14.8457 34.7276 14.5158 33.9438 14.511 33.1245V19.65C14.5102 19.4999 14.4799 19.3514 14.4217 19.213C14.3635 19.0747 14.2787 18.9491 14.172 18.8435C14.0653 18.7379 13.9388 18.6544 13.7999 18.5977C13.6609 18.541 13.5121 18.5122 13.362 18.513C13.2119 18.5122 13.0631 18.541 12.9241 18.5977C12.7852 18.6544 12.6587 18.7379 12.552 18.8435C12.4453 18.9491 12.3605 19.0747 12.3023 19.213C12.2441 19.3514 12.2138 19.4999 12.213 19.65V25.35C12.2108 25.7558 12.1288 26.1572 11.9715 26.5312C11.8142 26.9053 11.5848 27.2447 11.2963 27.5301C11.0078 27.8155 10.666 28.0413 10.2903 28.1946C9.91453 28.3479 9.51229 28.4257 9.1065 28.4235C8.70071 28.4257 8.29847 28.3479 7.92275 28.1946C7.54702 28.0413 7.20516 27.8155 6.91669 27.5301C6.62823 27.2447 6.3988 26.9053 6.24151 26.5312C6.08423 26.1572 6.00216 25.7558 6 25.35L6 23.283C6 22.7475 6.438 22.314 6.978 22.314C7.518 22.314 7.9575 22.749 7.9575 23.283V25.35C7.9575 25.977 8.472 26.4855 9.1065 26.4855C9.741 26.4855 10.2555 25.977 10.2555 25.35V19.6485C10.2603 18.8295 10.59 18.0459 11.1722 17.4699C11.7544 16.8938 12.5415 16.5725 13.3605 16.5765C14.1798 16.5721 14.9672 16.8933 15.5498 17.4693C16.1323 18.0454 16.4622 18.8292 16.467 19.6485V33.1245C16.467 33.753 16.9815 34.2615 17.6175 34.2615C18.252 34.2615 18.7665 33.753 18.7665 33.1245V12.105C18.7665 10.3905 20.172 9 21.906 9Z" fill="url(#paint0_linear_39_12)"/>
</g>
</g>
<defs>
<linearGradient id="paint0_linear_39_12" x1="6" y1="1510.71" x2="3612.55" y2="1510.71" gradientUnits="userSpaceOnUse">
<stop stop-color="#E2167E"/>
<stop offset="1" stop-color="#FE603C"/>
</linearGradient>
</defs>
</svg>
